<?xml version="1.0" encoding="utf-8" standalone="no"?>
<!DOCTYPE svg PUBLIC "-//W3C//DTD SVG 1.1//EN"
  "http://www.w3.org/Graphics/SVG/1.1/DTD/svg11.dtd">
<!-- Created with matplotlib (https://matplotlib.org/) -->
<svg height="627.833625pt" version="1.1" viewBox="0 0 1234.560938 627.833625" width="1234.560938pt" xmlns="http://www.w3.org/2000/svg" xmlns:xlink="http://www.w3.org/1999/xlink">
 <defs>
  <style type="text/css">
*{stroke-linecap:butt;stroke-linejoin:round;white-space:pre;}
  </style>
 </defs>
 <g id="figure_1">
  <g id="patch_1">
   <path d="M 0 627.833625 
L 1234.560938 627.833625 
L 1234.560938 0 
L 0 0 
z
" style="fill:#ffffff;"/>
  </g>
  <g id="axes_1">
   <g id="patch_2">
    <path d="M 46.965625 590.277375 
L 1162.965625 590.277375 
L 1162.965625 35.877375 
L 46.965625 35.877375 
z
" style="fill:#ffffff;"/>
   </g>
   <g id="matplotlib.axis_1">
    <g id="xtick_1">
     <g id="line2d_1">
      <path clip-path="url(#pf307394118)" d="M 97.692898 590.277375 
L 97.692898 35.877375 
" style="fill:none;stroke:#b0b0b0;stroke-linecap:square;stroke-width:0.8;"/>
     </g>
     <g id="line2d_2">
      <defs>
       <path d="M 0 0 
L 0 3.5 
" id="mb9e67ff314" style="stroke:#000000;stroke-width:0.8;"/>
      </defs>
      <g>
       <use style="stroke:#000000;stroke-width:0.8;" x="97.692898" xlink:href="#mb9e67ff314" y="590.277375"/>
      </g>
     </g>
     <g id="text_1">
      <!-- 0 -->
      <defs>
       <path d="M 31.78125 66.40625 
Q 24.171875 66.40625 20.328125 58.90625 
Q 16.5 51.421875 16.5 36.375 
Q 16.5 21.390625 20.328125 13.890625 
Q 24.171875 6.390625 31.78125 6.390625 
Q 39.453125 6.390625 43.28125 13.890625 
Q 47.125 21.390625 47.125 36.375 
Q 47.125 51.421875 43.28125 58.90625 
Q 39.453125 66.40625 31.78125 66.40625 
z
M 31.78125 74.21875 
Q 44.046875 74.21875 50.515625 64.515625 
Q 56.984375 54.828125 56.984375 36.375 
Q 56.984375 17.96875 50.515625 8.265625 
Q 44.046875 -1.421875 31.78125 -1.421875 
Q 19.53125 -1.421875 13.0625 8.265625 
Q 6.59375 17.96875 6.59375 36.375 
Q 6.59375 54.828125 13.0625 64.515625 
Q 19.53125 74.21875 31.78125 74.21875 
z
" id="DejaVuSans-48"/>
      </defs>
      <g transform="translate(94.511648 604.875812)scale(0.1 -0.1)">
       <use xlink:href="#DejaVuSans-48"/>
      </g>
     </g>
    </g>
    <g id="xtick_2">
     <g id="line2d_3">
      <path clip-path="url(#pf307394118)" d="M 233.055867 590.277375 
L 233.055867 35.877375 
" style="fill:none;stroke:#b0b0b0;stroke-linecap:square;stroke-width:0.8;"/>
     </g>
     <g id="line2d_4">
      <g>
       <use style="stroke:#000000;stroke-width:0.8;" x="233.055867" xlink:href="#mb9e67ff314" y="590.277375"/>
      </g>
     </g>
     <g id="text_2">
      <!-- 200 -->
      <defs>
       <path d="M 19.1875 8.296875 
L 53.609375 8.296875 
L 53.609375 0 
L 7.328125 0 
L 7.328125 8.296875 
Q 12.9375 14.109375 22.625 23.890625 
Q 32.328125 33.6875 34.8125 36.53125 
Q 39.546875 41.84375 41.421875 45.53125 
Q 43.3125 49.21875 43.3125 52.78125 
Q 43.3125 58.59375 39.234375 62.25 
Q 35.15625 65.921875 28.609375 65.921875 
Q 23.96875 65.921875 18.8125 64.3125 
Q 13.671875 62.703125 7.8125 59.421875 
L 7.8125 69.390625 
Q 13.765625 71.78125 18.9375 73 
Q 24.125 74.21875 28.421875 74.21875 
Q 39.75 74.21875 46.484375 68.546875 
Q 53.21875 62.890625 53.21875 53.421875 
Q 53.21875 48.921875 51.53125 44.890625 
Q 49.859375 40.875 45.40625 35.40625 
Q 44.1875 33.984375 37.640625 27.21875 
Q 31.109375 20.453125 19.1875 8.296875 
z
" id="DejaVuSans-50"/>
      </defs>
      <g transform="translate(223.512117 604.875812)scale(0.1 -0.1)">
       <use xlink:href="#DejaVuSans-50"/>
       <use x="63.623047" xlink:href="#DejaVuSans-48"/>
       <use x="127.246094" xlink:href="#DejaVuSans-48"/>
      </g>
     </g>
    </g>
    <g id="xtick_3">
     <g id="line2d_5">
      <path clip-path="url(#pf307394118)" d="M 368.418836 590.277375 
L 368.418836 35.877375 
" style="fill:none;stroke:#b0b0b0;stroke-linecap:square;stroke-width:0.8;"/>
     </g>
     <g id="line2d_6">
      <g>
       <use style="stroke:#000000;stroke-width:0.8;" x="368.418836" xlink:href="#mb9e67ff314" y="590.277375"/>
      </g>
     </g>
     <g id="text_3">
      <!-- 400 -->
      <defs>
       <path d="M 37.796875 64.3125 
L 12.890625 25.390625 
L 37.796875 25.390625 
z
M 35.203125 72.90625 
L 47.609375 72.90625 
L 47.609375 25.390625 
L 58.015625 25.390625 
L 58.015625 17.1875 
L 47.609375 17.1875 
L 47.609375 0 
L 37.796875 0 
L 37.796875 17.1875 
L 4.890625 17.1875 
L 4.890625 26.703125 
z
" id="DejaVuSans-52"/>
      </defs>
      <g transform="translate(358.875086 604.875812)scale(0.1 -0.1)">
       <use xlink:href="#DejaVuSans-52"/>
       <use x="63.623047" xlink:href="#DejaVuSans-48"/>
       <use x="127.246094" xlink:href="#DejaVuSans-48"/>
      </g>
     </g>
    </g>
    <g id="xtick_4">
     <g id="line2d_7">
      <path clip-path="url(#pf307394118)" d="M 503.781805 590.277375 
L 503.781805 35.877375 
" style="fill:none;stroke:#b0b0b0;stroke-linecap:square;stroke-width:0.8;"/>
     </g>
     <g id="line2d_8">
      <g>
       <use style="stroke:#000000;stroke-width:0.8;" x="503.781805" xlink:href="#mb9e67ff314" y="590.277375"/>
      </g>
     </g>
     <g id="text_4">
      <!-- 600 -->
      <defs>
       <path d="M 33.015625 40.375 
Q 26.375 40.375 22.484375 35.828125 
Q 18.609375 31.296875 18.609375 23.390625 
Q 18.609375 15.53125 22.484375 10.953125 
Q 26.375 6.390625 33.015625 6.390625 
Q 39.65625 6.390625 43.53125 10.953125 
Q 47.40625 15.53125 47.40625 23.390625 
Q 47.40625 31.296875 43.53125 35.828125 
Q 39.65625 40.375 33.015625 40.375 
z
M 52.59375 71.296875 
L 52.59375 62.3125 
Q 48.875 64.0625 45.09375 64.984375 
Q 41.3125 65.921875 37.59375 65.921875 
Q 27.828125 65.921875 22.671875 59.328125 
Q 17.53125 52.734375 16.796875 39.40625 
Q 19.671875 43.65625 24.015625 45.921875 
Q 28.375 48.1875 33.59375 48.1875 
Q 44.578125 48.1875 50.953125 41.515625 
Q 57.328125 34.859375 57.328125 23.390625 
Q 57.328125 12.15625 50.6875 5.359375 
Q 44.046875 -1.421875 33.015625 -1.421875 
Q 20.359375 -1.421875 13.671875 8.265625 
Q 6.984375 17.96875 6.984375 36.375 
Q 6.984375 53.65625 15.1875 63.9375 
Q 23.390625 74.21875 37.203125 74.21875 
Q 40.921875 74.21875 44.703125 73.484375 
Q 48.484375 72.75 52.59375 71.296875 
z
" id="DejaVuSans-54"/>
      </defs>
      <g transform="translate(494.238055 604.875812)scale(0.1 -0.1)">
       <use xlink:href="#DejaVuSans-54"/>
       <use x="63.623047" xlink:href="#DejaVuSans-48"/>
       <use x="127.246094" xlink:href="#DejaVuSans-48"/>
      </g>
     </g>
    </g>
    <g id="xtick_5">
     <g id="line2d_9">
      <path clip-path="url(#pf307394118)" d="M 639.144775 590.277375 
L 639.144775 35.877375 
" style="fill:none;stroke:#b0b0b0;stroke-linecap:square;stroke-width:0.8;"/>
     </g>
     <g id="line2d_10">
      <g>
       <use style="stroke:#000000;stroke-width:0.8;" x="639.144775" xlink:href="#mb9e67ff314" y="590.277375"/>
      </g>
     </g>
     <g id="text_5">
      <!-- 800 -->
      <defs>
       <path d="M 31.78125 34.625 
Q 24.75 34.625 20.71875 30.859375 
Q 16.703125 27.09375 16.703125 20.515625 
Q 16.703125 13.921875 20.71875 10.15625 
Q 24.75 6.390625 31.78125 6.390625 
Q 38.8125 6.390625 42.859375 10.171875 
Q 46.921875 13.96875 46.921875 20.515625 
Q 46.921875 27.09375 42.890625 30.859375 
Q 38.875 34.625 31.78125 34.625 
z
M 21.921875 38.8125 
Q 15.578125 40.375 12.03125 44.71875 
Q 8.5 49.078125 8.5 55.328125 
Q 8.5 64.0625 14.71875 69.140625 
Q 20.953125 74.21875 31.78125 74.21875 
Q 42.671875 74.21875 48.875 69.140625 
Q 55.078125 64.0625 55.078125 55.328125 
Q 55.078125 49.078125 51.53125 44.71875 
Q 48 40.375 41.703125 38.8125 
Q 48.828125 37.15625 52.796875 32.3125 
Q 56.78125 27.484375 56.78125 20.515625 
Q 56.78125 9.90625 50.3125 4.234375 
Q 43.84375 -1.421875 31.78125 -1.421875 
Q 19.734375 -1.421875 13.25 4.234375 
Q 6.78125 9.90625 6.78125 20.515625 
Q 6.78125 27.484375 10.78125 32.3125 
Q 14.796875 37.15625 21.921875 38.8125 
z
M 18.3125 54.390625 
Q 18.3125 48.734375 21.84375 45.5625 
Q 25.390625 42.390625 31.78125 42.390625 
Q 38.140625 42.390625 41.71875 45.5625 
Q 45.3125 48.734375 45.3125 54.390625 
Q 45.3125 60.0625 41.71875 63.234375 
Q 38.140625 66.40625 31.78125 66.40625 
Q 25.390625 66.40625 21.84375 63.234375 
Q 18.3125 60.0625 18.3125 54.390625 
z
" id="DejaVuSans-56"/>
      </defs>
      <g transform="translate(629.601025 604.875812)scale(0.1 -0.1)">
       <use xlink:href="#DejaVuSans-56"/>
       <use x="63.623047" xlink:href="#DejaVuSans-48"/>
       <use x="127.246094" xlink:href="#DejaVuSans-48"/>
      </g>
     </g>
    </g>
    <g id="xtick_6">
     <g id="line2d_11">
      <path clip-path="url(#pf307394118)" d="M 774.507744 590.277375 
L 774.507744 35.877375 
" style="fill:none;stroke:#b0b0b0;stroke-linecap:square;stroke-width:0.8;"/>
     </g>
     <g id="line2d_12">
      <g>
       <use style="stroke:#000000;stroke-width:0.8;" x="774.507744" xlink:href="#mb9e67ff314" y="590.277375"/>
      </g>
     </g>
     <g id="text_6">
      <!-- 1000 -->
      <defs>
       <path d="M 12.40625 8.296875 
L 28.515625 8.296875 
L 28.515625 63.921875 
L 10.984375 60.40625 
L 10.984375 69.390625 
L 28.421875 72.90625 
L 38.28125 72.90625 
L 38.28125 8.296875 
L 54.390625 8.296875 
L 54.390625 0 
L 12.40625 0 
z
" id="DejaVuSans-49"/>
      </defs>
      <g transform="translate(761.782744 604.875812)scale(0.1 -0.1)">
       <use xlink:href="#DejaVuSans-49"/>
       <use x="63.623047" xlink:href="#DejaVuSans-48"/>
       <use x="127.246094" xlink:href="#DejaVuSans-48"/>
       <use x="190.869141" xlink:href="#DejaVuSans-48"/>
      </g>
     </g>
    </g>
    <g id="xtick_7">
     <g id="line2d_13">
      <path clip-path="url(#pf307394118)" d="M 909.870713 590.277375 
L 909.870713 35.877375 
" style="fill:none;stroke:#b0b0b0;stroke-linecap:square;stroke-width:0.8;"/>
     </g>
     <g id="line2d_14">
      <g>
       <use style="stroke:#000000;stroke-width:0.8;" x="909.870713" xlink:href="#mb9e67ff314" y="590.277375"/>
      </g>
     </g>
     <g id="text_7">
      <!-- 1200 -->
      <g transform="translate(897.145713 604.875812)scale(0.1 -0.1)">
       <use xlink:href="#DejaVuSans-49"/>
       <use x="63.623047" xlink:href="#DejaVuSans-50"/>
       <use x="127.246094" xlink:href="#DejaVuSans-48"/>
       <use x="190.869141" xlink:href="#DejaVuSans-48"/>
      </g>
     </g>
    </g>
    <g id="xtick_8">
     <g id="line2d_15">
      <path clip-path="url(#pf307394118)" d="M 1045.233682 590.277375 
L 1045.233682 35.877375 
" style="fill:none;stroke:#b0b0b0;stroke-linecap:square;stroke-width:0.8;"/>
     </g>
     <g id="line2d_16">
      <g>
       <use style="stroke:#000000;stroke-width:0.8;" x="1045.233682" xlink:href="#mb9e67ff314" y="590.277375"/>
      </g>
     </g>
     <g id="text_8">
      <!-- 1400 -->
      <g transform="translate(1032.508682 604.875812)scale(0.1 -0.1)">
       <use xlink:href="#DejaVuSans-49"/>
       <use x="63.623047" xlink:href="#DejaVuSans-52"/>
       <use x="127.246094" xlink:href="#DejaVuSans-48"/>
       <use x="190.869141" xlink:href="#DejaVuSans-48"/>
      </g>
     </g>
    </g>
    <g id="text_9">
     <!-- Number of traces -->
     <defs>
      <path d="M 9.8125 72.90625 
L 23.09375 72.90625 
L 55.421875 11.921875 
L 55.421875 72.90625 
L 64.984375 72.90625 
L 64.984375 0 
L 51.703125 0 
L 19.390625 60.984375 
L 19.390625 0 
L 9.8125 0 
z
" id="DejaVuSans-78"/>
      <path d="M 8.5 21.578125 
L 8.5 54.6875 
L 17.484375 54.6875 
L 17.484375 21.921875 
Q 17.484375 14.15625 20.5 10.265625 
Q 23.53125 6.390625 29.59375 6.390625 
Q 36.859375 6.390625 41.078125 11.03125 
Q 45.3125 15.671875 45.3125 23.6875 
L 45.3125 54.6875 
L 54.296875 54.6875 
L 54.296875 0 
L 45.3125 0 
L 45.3125 8.40625 
Q 42.046875 3.421875 37.71875 1 
Q 33.40625 -1.421875 27.6875 -1.421875 
Q 18.265625 -1.421875 13.375 4.4375 
Q 8.5 10.296875 8.5 21.578125 
z
M 31.109375 56 
z
" id="DejaVuSans-117"/>
      <path d="M 52 44.1875 
Q 55.375 50.25 60.0625 53.125 
Q 64.75 56 71.09375 56 
Q 79.640625 56 84.28125 50.015625 
Q 88.921875 44.046875 88.921875 33.015625 
L 88.921875 0 
L 79.890625 0 
L 79.890625 32.71875 
Q 79.890625 40.578125 77.09375 44.375 
Q 74.3125 48.1875 68.609375 48.1875 
Q 61.625 48.1875 57.5625 43.546875 
Q 53.515625 38.921875 53.515625 30.90625 
L 53.515625 0 
L 44.484375 0 
L 44.484375 32.71875 
Q 44.484375 40.625 41.703125 44.40625 
Q 38.921875 48.1875 33.109375 48.1875 
Q 26.21875 48.1875 22.15625 43.53125 
Q 18.109375 38.875 18.109375 30.90625 
L 18.109375 0 
L 9.078125 0 
L 9.078125 54.6875 
L 18.109375 54.6875 
L 18.109375 46.1875 
Q 21.1875 51.21875 25.484375 53.609375 
Q 29.78125 56 35.6875 56 
Q 41.65625 56 45.828125 52.96875 
Q 50 49.953125 52 44.1875 
z
" id="DejaVuSans-109"/>
      <path d="M 48.6875 27.296875 
Q 48.6875 37.203125 44.609375 42.84375 
Q 40.53125 48.484375 33.40625 48.484375 
Q 26.265625 48.484375 22.1875 42.84375 
Q 18.109375 37.203125 18.109375 27.296875 
Q 18.109375 17.390625 22.1875 11.75 
Q 26.265625 6.109375 33.40625 6.109375 
Q 40.53125 6.109375 44.609375 11.75 
Q 48.6875 17.390625 48.6875 27.296875 
z
M 18.109375 46.390625 
Q 20.953125 51.265625 25.265625 53.625 
Q 29.59375 56 35.59375 56 
Q 45.5625 56 51.78125 48.09375 
Q 58.015625 40.1875 58.015625 27.296875 
Q 58.015625 14.40625 51.78125 6.484375 
Q 45.5625 -1.421875 35.59375 -1.421875 
Q 29.59375 -1.421875 25.265625 0.953125 
Q 20.953125 3.328125 18.109375 8.203125 
L 18.109375 0 
L 9.078125 0 
L 9.078125 75.984375 
L 18.109375 75.984375 
z
" id="DejaVuSans-98"/>
      <path d="M 56.203125 29.59375 
L 56.203125 25.203125 
L 14.890625 25.203125 
Q 15.484375 15.921875 20.484375 11.0625 
Q 25.484375 6.203125 34.421875 6.203125 
Q 39.59375 6.203125 44.453125 7.46875 
Q 49.3125 8.734375 54.109375 11.28125 
L 54.109375 2.78125 
Q 49.265625 0.734375 44.1875 -0.34375 
Q 39.109375 -1.421875 33.890625 -1.421875 
Q 20.796875 -1.421875 13.15625 6.1875 
Q 5.515625 13.8125 5.515625 26.8125 
Q 5.515625 40.234375 12.765625 48.109375 
Q 20.015625 56 32.328125 56 
Q 43.359375 56 49.78125 48.890625 
Q 56.203125 41.796875 56.203125 29.59375 
z
M 47.21875 32.234375 
Q 47.125 39.59375 43.09375 43.984375 
Q 39.0625 48.390625 32.421875 48.390625 
Q 24.90625 48.390625 20.390625 44.140625 
Q 15.875 39.890625 15.1875 32.171875 
z
" id="DejaVuSans-101"/>
      <path d="M 41.109375 46.296875 
Q 39.59375 47.171875 37.8125 47.578125 
Q 36.03125 48 33.890625 48 
Q 26.265625 48 22.1875 43.046875 
Q 18.109375 38.09375 18.109375 28.8125 
L 18.109375 0 
L 9.078125 0 
L 9.078125 54.6875 
L 18.109375 54.6875 
L 18.109375 46.1875 
Q 20.953125 51.171875 25.484375 53.578125 
Q 30.03125 56 36.53125 56 
Q 37.453125 56 38.578125 55.875 
Q 39.703125 55.765625 41.0625 55.515625 
z
" id="DejaVuSans-114"/>
      <path id="DejaVuSans-32"/>
      <path d="M 30.609375 48.390625 
Q 23.390625 48.390625 19.1875 42.75 
Q 14.984375 37.109375 14.984375 27.296875 
Q 14.984375 17.484375 19.15625 11.84375 
Q 23.34375 6.203125 30.609375 6.203125 
Q 37.796875 6.203125 41.984375 11.859375 
Q 46.1875 17.53125 46.1875 27.296875 
Q 46.1875 37.015625 41.984375 42.703125 
Q 37.796875 48.390625 30.609375 48.390625 
z
M 30.609375 56 
Q 42.328125 56 49.015625 48.375 
Q 55.71875 40.765625 55.71875 27.296875 
Q 55.71875 13.875 49.015625 6.21875 
Q 42.328125 -1.421875 30.609375 -1.421875 
Q 18.84375 -1.421875 12.171875 6.21875 
Q 5.515625 13.875 5.515625 27.296875 
Q 5.515625 40.765625 12.171875 48.375 
Q 18.84375 56 30.609375 56 
z
" id="DejaVuSans-111"/>
      <path d="M 37.109375 75.984375 
L 37.109375 68.5 
L 28.515625 68.5 
Q 23.6875 68.5 21.796875 66.546875 
Q 19.921875 64.59375 19.921875 59.515625 
L 19.921875 54.6875 
L 34.71875 54.6875 
L 34.71875 47.703125 
L 19.921875 47.703125 
L 19.921875 0 
L 10.890625 0 
L 10.890625 47.703125 
L 2.296875 47.703125 
L 2.296875 54.6875 
L 10.890625 54.6875 
L 10.890625 58.5 
Q 10.890625 67.625 15.140625 71.796875 
Q 19.390625 75.984375 28.609375 75.984375 
z
" id="DejaVuSans-102"/>
      <path d="M 18.3125 70.21875 
L 18.3125 54.6875 
L 36.8125 54.6875 
L 36.8125 47.703125 
L 18.3125 47.703125 
L 18.3125 18.015625 
Q 18.3125 11.328125 20.140625 9.421875 
Q 21.96875 7.515625 27.59375 7.515625 
L 36.8125 7.515625 
L 36.8125 0 
L 27.59375 0 
Q 17.1875 0 13.234375 3.875 
Q 9.28125 7.765625 9.28125 18.015625 
L 9.28125 47.703125 
L 2.6875 47.703125 
L 2.6875 54.6875 
L 9.28125 54.6875 
L 9.28125 70.21875 
z
" id="DejaVuSans-116"/>
      <path d="M 34.28125 27.484375 
Q 23.390625 27.484375 19.1875 25 
Q 14.984375 22.515625 14.984375 16.5 
Q 14.984375 11.71875 18.140625 8.90625 
Q 21.296875 6.109375 26.703125 6.109375 
Q 34.1875 6.109375 38.703125 11.40625 
Q 43.21875 16.703125 43.21875 25.484375 
L 43.21875 27.484375 
z
M 52.203125 31.203125 
L 52.203125 0 
L 43.21875 0 
L 43.21875 8.296875 
Q 40.140625 3.328125 35.546875 0.953125 
Q 30.953125 -1.421875 24.3125 -1.421875 
Q 15.921875 -1.421875 10.953125 3.296875 
Q 6 8.015625 6 15.921875 
Q 6 25.140625 12.171875 29.828125 
Q 18.359375 34.515625 30.609375 34.515625 
L 43.21875 34.515625 
L 43.21875 35.40625 
Q 43.21875 41.609375 39.140625 45 
Q 35.0625 48.390625 27.6875 48.390625 
Q 23 48.390625 18.546875 47.265625 
Q 14.109375 46.140625 10.015625 43.890625 
L 10.015625 52.203125 
Q 14.9375 54.109375 19.578125 55.046875 
Q 24.21875 56 28.609375 56 
Q 40.484375 56 46.34375 49.84375 
Q 52.203125 43.703125 52.203125 31.203125 
z
" id="DejaVuSans-97"/>
      <path d="M 48.78125 52.59375 
L 48.78125 44.1875 
Q 44.96875 46.296875 41.140625 47.34375 
Q 37.3125 48.390625 33.40625 48.390625 
Q 24.65625 48.390625 19.8125 42.84375 
Q 14.984375 37.3125 14.984375 27.296875 
Q 14.984375 17.28125 19.8125 11.734375 
Q 24.65625 6.203125 33.40625 6.203125 
Q 37.3125 6.203125 41.140625 7.25 
Q 44.96875 8.296875 48.78125 10.40625 
L 48.78125 2.09375 
Q 45.015625 0.34375 40.984375 -0.53125 
Q 36.96875 -1.421875 32.421875 -1.421875 
Q 20.0625 -1.421875 12.78125 6.34375 
Q 5.515625 14.109375 5.515625 27.296875 
Q 5.515625 40.671875 12.859375 48.328125 
Q 20.21875 56 33.015625 56 
Q 37.15625 56 41.109375 55.140625 
Q 45.0625 54.296875 48.78125 52.59375 
z
" id="DejaVuSans-99"/>
      <path d="M 44.28125 53.078125 
L 44.28125 44.578125 
Q 40.484375 46.53125 36.375 47.5 
Q 32.28125 48.484375 27.875 48.484375 
Q 21.1875 48.484375 17.84375 46.4375 
Q 14.5 44.390625 14.5 40.28125 
Q 14.5 37.15625 16.890625 35.375 
Q 19.28125 33.59375 26.515625 31.984375 
L 29.59375 31.296875 
Q 39.15625 29.25 43.1875 25.515625 
Q 47.21875 21.78125 47.21875 15.09375 
Q 47.21875 7.46875 41.1875 3.015625 
Q 35.15625 -1.421875 24.609375 -1.421875 
Q 20.21875 -1.421875 15.453125 -0.5625 
Q 10.6875 0.296875 5.421875 2 
L 5.421875 11.28125 
Q 10.40625 8.6875 15.234375 7.390625 
Q 20.0625 6.109375 24.8125 6.109375 
Q 31.15625 6.109375 34.5625 8.28125 
Q 37.984375 10.453125 37.984375 14.40625 
Q 37.984375 18.0625 35.515625 20.015625 
Q 33.0625 21.96875 24.703125 23.78125 
L 21.578125 24.515625 
Q 13.234375 26.265625 9.515625 29.90625 
Q 5.8125 33.546875 5.8125 39.890625 
Q 5.8125 47.609375 11.28125 51.796875 
Q 16.75 56 26.8125 56 
Q 31.78125 56 36.171875 55.265625 
Q 40.578125 54.546875 44.28125 53.078125 
z
" id="DejaVuSans-115"/>
     </defs>
     <g transform="translate(561.371875 618.553937)scale(0.1 -0.1)">
      <use xlink:href="#DejaVuSans-78"/>
      <use x="74.804688" xlink:href="#DejaVuSans-117"/>
      <use x="138.183594" xlink:href="#DejaVuSans-109"/>
      <use x="235.595703" xlink:href="#DejaVuSans-98"/>
      <use x="299.072266" xlink:href="#DejaVuSans-101"/>
      <use x="360.595703" xlink:href="#DejaVuSans-114"/>
      <use x="401.708984" xlink:href="#DejaVuSans-32"/>
      <use x="433.496094" xlink:href="#DejaVuSans-111"/>
      <use x="494.677734" xlink:href="#DejaVuSans-102"/>
      <use x="529.882812" xlink:href="#DejaVuSans-32"/>
      <use x="561.669922" xlink:href="#DejaVuSans-116"/>
      <use x="600.878906" xlink:href="#DejaVuSans-114"/>
      <use x="641.992188" xlink:href="#DejaVuSans-97"/>
      <use x="703.271484" xlink:href="#DejaVuSans-99"/>
      <use x="758.251953" xlink:href="#DejaVuSans-101"/>
      <use x="819.775391" xlink:href="#DejaVuSans-115"/>
     </g>
    </g>
   </g>
   <g id="matplotlib.axis_2">
    <g id="ytick_1">
     <g id="line2d_17">
      <path clip-path="url(#pf307394118)" d="M 46.965625 576.755424 
L 1162.965625 576.755424 
" style="fill:none;stroke:#b0b0b0;stroke-linecap:square;stroke-width:0.8;"/>
     </g>
     <g id="line2d_18">
      <defs>
       <path d="M 0 0 
L -3.5 0 
" id="mf499aceba1" style="stroke:#000000;stroke-width:0.8;"/>
      </defs>
      <g>
       <use style="stroke:#000000;stroke-width:0.8;" x="46.965625" xlink:href="#mf499aceba1" y="576.755424"/>
      </g>
     </g>
     <g id="text_10">
      <!-- 0 -->
      <g transform="translate(33.603125 580.554643)scale(0.1 -0.1)">
       <use xlink:href="#DejaVuSans-48"/>
      </g>
     </g>
    </g>
    <g id="ytick_2">
     <g id="line2d_19">
      <path clip-path="url(#pf307394118)" d="M 46.965625 509.145668 
L 1162.965625 509.145668 
" style="fill:none;stroke:#b0b0b0;stroke-linecap:square;stroke-width:0.8;"/>
     </g>
     <g id="line2d_20">
      <g>
       <use style="stroke:#000000;stroke-width:0.8;" x="46.965625" xlink:href="#mf499aceba1" y="509.145668"/>
      </g>
     </g>
     <g id="text_11">
      <!-- 25 -->
      <defs>
       <path d="M 10.796875 72.90625 
L 49.515625 72.90625 
L 49.515625 64.59375 
L 19.828125 64.59375 
L 19.828125 46.734375 
Q 21.96875 47.46875 24.109375 47.828125 
Q 26.265625 48.1875 28.421875 48.1875 
Q 40.625 48.1875 47.75 41.5 
Q 54.890625 34.8125 54.890625 23.390625 
Q 54.890625 11.625 47.5625 5.09375 
Q 40.234375 -1.421875 26.90625 -1.421875 
Q 22.3125 -1.421875 17.546875 -0.640625 
Q 12.796875 0.140625 7.71875 1.703125 
L 7.71875 11.625 
Q 12.109375 9.234375 16.796875 8.0625 
Q 21.484375 6.890625 26.703125 6.890625 
Q 35.15625 6.890625 40.078125 11.328125 
Q 45.015625 15.765625 45.015625 23.390625 
Q 45.015625 31 40.078125 35.4375 
Q 35.15625 39.890625 26.703125 39.890625 
Q 22.75 39.890625 18.8125 39.015625 
Q 14.890625 38.140625 10.796875 36.28125 
z
" id="DejaVuSans-53"/>
      </defs>
      <g transform="translate(27.240625 512.944886)scale(0.1 -0.1)">
       <use xlink:href="#DejaVuSans-50"/>
       <use x="63.623047" xlink:href="#DejaVuSans-53"/>
      </g>
     </g>
    </g>
    <g id="ytick_3">
     <g id="line2d_21">
      <path clip-path="url(#pf307394118)" d="M 46.965625 441.535912 
L 1162.965625 441.535912 
" style="fill:none;stroke:#b0b0b0;stroke-linecap:square;stroke-width:0.8;"/>
     </g>
     <g id="line2d_22">
      <g>
       <use style="stroke:#000000;stroke-width:0.8;" x="46.965625" xlink:href="#mf499aceba1" y="441.535912"/>
      </g>
     </g>
     <g id="text_12">
      <!-- 50 -->
      <g transform="translate(27.240625 445.33513)scale(0.1 -0.1)">
       <use xlink:href="#DejaVuSans-53"/>
       <use x="63.623047" xlink:href="#DejaVuSans-48"/>
      </g>
     </g>
    </g>
    <g id="ytick_4">
     <g id="line2d_23">
      <path clip-path="url(#pf307394118)" d="M 46.965625 373.926155 
L 1162.965625 373.926155 
" style="fill:none;stroke:#b0b0b0;stroke-linecap:square;stroke-width:0.8;"/>
     </g>
     <g id="line2d_24">
      <g>
       <use style="stroke:#000000;stroke-width:0.8;" x="46.965625" xlink:href="#mf499aceba1" y="373.926155"/>
      </g>
     </g>
     <g id="text_13">
      <!-- 75 -->
      <defs>
       <path d="M 8.203125 72.90625 
L 55.078125 72.90625 
L 55.078125 68.703125 
L 28.609375 0 
L 18.3125 0 
L 43.21875 64.59375 
L 8.203125 64.59375 
z
" id="DejaVuSans-55"/>
      </defs>
      <g transform="translate(27.240625 377.725374)scale(0.1 -0.1)">
       <use xlink:href="#DejaVuSans-55"/>
       <use x="63.623047" xlink:href="#DejaVuSans-53"/>
      </g>
     </g>
    </g>
    <g id="ytick_5">
     <g id="line2d_25">
      <path clip-path="url(#pf307394118)" d="M 46.965625 306.316399 
L 1162.965625 306.316399 
" style="fill:none;stroke:#b0b0b0;stroke-linecap:square;stroke-width:0.8;"/>
     </g>
     <g id="line2d_26">
      <g>
       <use style="stroke:#000000;stroke-width:0.8;" x="46.965625" xlink:href="#mf499aceba1" y="306.316399"/>
      </g>
     </g>
     <g id="text_14">
      <!-- 100 -->
      <g transform="translate(20.878125 310.115618)scale(0.1 -0.1)">
       <use xlink:href="#DejaVuSans-49"/>
       <use x="63.623047" xlink:href="#DejaVuSans-48"/>
       <use x="127.246094" xlink:href="#DejaVuSans-48"/>
      </g>
     </g>
    </g>
    <g id="ytick_6">
     <g id="line2d_27">
      <path clip-path="url(#pf307394118)" d="M 46.965625 238.706643 
L 1162.965625 238.706643 
" style="fill:none;stroke:#b0b0b0;stroke-linecap:square;stroke-width:0.8;"/>
     </g>
     <g id="line2d_28">
      <g>
       <use style="stroke:#000000;stroke-width:0.8;" x="46.965625" xlink:href="#mf499aceba1" y="238.706643"/>
      </g>
     </g>
     <g id="text_15">
      <!-- 125 -->
      <g transform="translate(20.878125 242.505862)scale(0.1 -0.1)">
       <use xlink:href="#DejaVuSans-49"/>
       <use x="63.623047" xlink:href="#DejaVuSans-50"/>
       <use x="127.246094" xlink:href="#DejaVuSans-53"/>
      </g>
     </g>
    </g>
    <g id="ytick_7">
     <g id="line2d_29">
      <path clip-path="url(#pf307394118)" d="M 46.965625 171.096887 
L 1162.965625 171.096887 
" style="fill:none;stroke:#b0b0b0;stroke-linecap:square;stroke-width:0.8;"/>
     </g>
     <g id="line2d_30">
      <g>
       <use style="stroke:#000000;stroke-width:0.8;" x="46.965625" xlink:href="#mf499aceba1" y="171.096887"/>
      </g>
     </g>
     <g id="text_16">
      <!-- 150 -->
      <g transform="translate(20.878125 174.896106)scale(0.1 -0.1)">
       <use xlink:href="#DejaVuSans-49"/>
       <use x="63.623047" xlink:href="#DejaVuSans-53"/>
       <use x="127.246094" xlink:href="#DejaVuSans-48"/>
      </g>
     </g>
    </g>
    <g id="ytick_8">
     <g id="line2d_31">
      <path clip-path="url(#pf307394118)" d="M 46.965625 103.487131 
L 1162.965625 103.487131 
" style="fill:none;stroke:#b0b0b0;stroke-linecap:square;stroke-width:0.8;"/>
     </g>
     <g id="line2d_32">
      <g>
       <use style="stroke:#000000;stroke-width:0.8;" x="46.965625" xlink:href="#mf499aceba1" y="103.487131"/>
      </g>
     </g>
     <g id="text_17">
      <!-- 175 -->
      <g transform="translate(20.878125 107.28635)scale(0.1 -0.1)">
       <use xlink:href="#DejaVuSans-49"/>
       <use x="63.623047" xlink:href="#DejaVuSans-55"/>
       <use x="127.246094" xlink:href="#DejaVuSans-53"/>
      </g>
     </g>
    </g>
    <g id="ytick_9">
     <g id="line2d_33">
      <path clip-path="url(#pf307394118)" d="M 46.965625 35.877375 
L 1162.965625 35.877375 
" style="fill:none;stroke:#b0b0b0;stroke-linecap:square;stroke-width:0.8;"/>
     </g>
     <g id="line2d_34">
      <g>
       <use style="stroke:#000000;stroke-width:0.8;" x="46.965625" xlink:href="#mf499aceba1" y="35.877375"/>
      </g>
     </g>
     <g id="text_18">
      <!-- 200 -->
      <g transform="translate(20.878125 39.676594)scale(0.1 -0.1)">
       <use xlink:href="#DejaVuSans-50"/>
       <use x="63.623047" xlink:href="#DejaVuSans-48"/>
       <use x="127.246094" xlink:href="#DejaVuSans-48"/>
      </g>
     </g>
    </g>
    <g id="text_19">
     <!-- Rank -->
     <defs>
      <path d="M 44.390625 34.1875 
Q 47.5625 33.109375 50.5625 29.59375 
Q 53.5625 26.078125 56.59375 19.921875 
L 66.609375 0 
L 56 0 
L 46.6875 18.703125 
Q 43.0625 26.03125 39.671875 28.421875 
Q 36.28125 30.8125 30.421875 30.8125 
L 19.671875 30.8125 
L 19.671875 0 
L 9.8125 0 
L 9.8125 72.90625 
L 32.078125 72.90625 
Q 44.578125 72.90625 50.734375 67.671875 
Q 56.890625 62.453125 56.890625 51.90625 
Q 56.890625 45.015625 53.6875 40.46875 
Q 50.484375 35.9375 44.390625 34.1875 
z
M 19.671875 64.796875 
L 19.671875 38.921875 
L 32.078125 38.921875 
Q 39.203125 38.921875 42.84375 42.21875 
Q 46.484375 45.515625 46.484375 51.90625 
Q 46.484375 58.296875 42.84375 61.546875 
Q 39.203125 64.796875 32.078125 64.796875 
z
" id="DejaVuSans-82"/>
      <path d="M 54.890625 33.015625 
L 54.890625 0 
L 45.90625 0 
L 45.90625 32.71875 
Q 45.90625 40.484375 42.875 44.328125 
Q 39.84375 48.1875 33.796875 48.1875 
Q 26.515625 48.1875 22.3125 43.546875 
Q 18.109375 38.921875 18.109375 30.90625 
L 18.109375 0 
L 9.078125 0 
L 9.078125 54.6875 
L 18.109375 54.6875 
L 18.109375 46.1875 
Q 21.34375 51.125 25.703125 53.5625 
Q 30.078125 56 35.796875 56 
Q 45.21875 56 50.046875 50.171875 
Q 54.890625 44.34375 54.890625 33.015625 
z
" id="DejaVuSans-110"/>
      <path d="M 9.078125 75.984375 
L 18.109375 75.984375 
L 18.109375 31.109375 
L 44.921875 54.6875 
L 56.390625 54.6875 
L 27.390625 29.109375 
L 57.625 0 
L 45.90625 0 
L 18.109375 26.703125 
L 18.109375 0 
L 9.078125 0 
z
" id="DejaVuSans-107"/>
     </defs>
     <g transform="translate(14.798438 325.678156)rotate(-90)scale(0.1 -0.1)">
      <use xlink:href="#DejaVuSans-82"/>
      <use x="69.451172" xlink:href="#DejaVuSans-97"/>
      <use x="130.730469" xlink:href="#DejaVuSans-110"/>
      <use x="194.109375" xlink:href="#DejaVuSans-107"/>
     </g>
    </g>
   </g>
   <g id="line2d_35">
    <path clip-path="url(#pf307394118)" d="M 97.692898 236.516087 
L 98.369713 264.398351 
L 99.046527 258.448692 
L 99.723342 264.858097 
L 100.400157 255.446819 
L 101.076972 255.338643 
L 101.753787 252.390858 
L 102.430602 254.527326 
L 103.107416 248.199053 
L 103.784231 262.910936 
L 104.461046 261.721004 
L 105.137861 271.240458 
L 105.814676 278.812751 
L 106.491491 274.566858 
L 107.168306 278.055521 
L 107.84512 292.87558 
L 108.521935 294.876829 
L 109.19875 298.095053 
L 109.875565 303.260438 
L 110.55238 315.998116 
L 111.229195 316.78239 
L 111.906009 324.625121 
L 112.582824 321.56916 
L 113.259639 320.325141 
L 113.936454 330.926351 
L 114.613269 331.142702 
L 115.290084 334.198663 
L 115.966899 337.876634 
L 116.643713 342.852712 
L 117.320528 344.962136 
L 117.997343 345.773453 
L 118.674158 341.473473 
L 120.027788 354.048887 
L 120.704603 348.126273 
L 121.381417 350.938838 
L 122.058232 355.887873 
L 122.735047 358.457043 
L 123.411862 358.997921 
L 124.088677 360.296029 
L 124.765492 368.733726 
L 126.119121 376.846897 
L 126.795936 377.225512 
L 127.472751 377.198468 
L 128.149566 371.519248 
L 128.826381 378.226136 
L 129.503196 378.307268 
L 130.18001 382.823599 
L 130.856825 381.985238 
L 131.53364 385.095287 
L 132.210455 386.068868 
L 132.88727 387.934897 
L 133.564085 390.963814 
L 134.240899 386.744965 
L 134.917714 394.587697 
L 135.594529 398.21158 
L 136.271344 404.37759 
L 136.948159 408.028516 
L 137.624974 410.841082 
L 138.301789 411.300829 
L 138.978603 413.59956 
L 140.332233 420.225316 
L 141.009048 419.630351 
L 141.685863 425.120263 
L 142.362678 423.903287 
L 143.039492 426.283151 
L 143.716307 428.068048 
L 144.393122 429.149804 
L 145.069937 429.690682 
L 145.746752 429.447287 
L 146.423567 435.451034 
L 147.100382 434.288146 
L 147.777196 434.234058 
L 148.454011 435.856692 
L 149.130826 436.803229 
L 149.807641 438.452907 
L 151.161271 447.404438 
L 151.838085 453.110702 
L 152.5149 451.92077 
L 153.191715 452.218253 
L 153.86853 455.490565 
L 154.545345 456.950936 
L 155.22216 460.872302 
L 155.898975 460.628907 
L 156.575789 456.950936 
L 157.252604 455.490565 
L 158.606234 459.141492 
L 159.283049 462.278585 
L 159.959864 463.576692 
L 160.636678 466.605609 
L 161.313493 464.036438 
L 161.990308 462.765375 
L 162.667123 463.14399 
L 163.343938 466.82196 
L 164.020753 465.767248 
L 164.697568 466.578565 
L 165.374382 465.523853 
L 166.051197 466.767873 
L 166.728012 468.796165 
L 167.404827 469.337043 
L 168.081642 469.553395 
L 168.758457 468.68799 
L 169.435271 469.03956 
L 170.112086 470.337668 
L 170.788901 470.77037 
L 171.465716 470.472887 
L 172.142531 471.770995 
L 172.819346 474.340165 
L 173.496161 475.421921 
L 174.172975 475.962799 
L 174.84979 476.80116 
L 175.526605 477.828829 
L 176.20342 476.503677 
L 176.880235 477.017512 
L 177.55705 478.207443 
L 178.910679 478.504926 
L 179.587494 480.560263 
L 180.264309 480.911834 
L 180.941124 482.372204 
L 181.617939 479.478507 
L 182.294754 479.830077 
L 183.648383 481.155229 
L 184.325198 481.23636 
L 185.678828 482.913082 
L 186.355643 483.994838 
L 187.032457 484.238234 
L 187.709272 483.643268 
L 188.386087 484.319365 
L 189.062902 485.347034 
L 189.739717 486.996712 
L 190.416532 488.159599 
L 191.093347 487.780985 
L 191.770161 487.808029 
L 192.446976 489.187268 
L 193.123791 489.376575 
L 193.800606 490.377199 
L 194.477421 492.784107 
L 195.154236 492.108009 
L 196.507865 493.054546 
L 197.861495 494.650136 
L 198.53831 493.757687 
L 199.215125 494.893531 
L 199.89194 497.219307 
L 200.568754 497.246351 
L 201.245569 496.678429 
L 201.922384 497.489746 
L 202.599199 499.058292 
L 203.952829 498.111755 
L 204.629643 497.841316 
L 205.306458 499.518038 
L 206.660088 500.789102 
L 207.336903 500.653882 
L 208.013718 501.492243 
L 208.690533 501.275892 
L 209.367347 501.302936 
L 210.044162 502.601043 
L 210.720977 502.43878 
L 211.397792 502.141297 
L 212.074607 503.439404 
L 212.751422 504.440029 
L 213.428236 503.574624 
L 214.105051 506.008575 
L 214.781866 506.73876 
L 215.458681 506.089707 
L 217.489126 508.523658 
L 218.842755 510.362643 
L 219.51957 511.390312 
L 220.196385 510.470819 
L 220.8732 510.795346 
L 222.226829 514.256965 
L 222.903644 513.499736 
L 223.580459 514.527404 
L 224.257274 514.040614 
L 224.934089 514.284009 
L 225.610904 514.797843 
L 226.287719 514.446273 
L 226.964533 513.580868 
L 227.641348 513.959482 
L 228.318163 514.040614 
L 228.994978 515.473941 
L 229.671793 516.150038 
L 230.348608 516.555697 
L 231.025422 516.636829 
L 231.702237 517.502234 
L 232.379052 517.82676 
L 233.055867 518.367638 
L 233.732682 519.476438 
L 234.409497 519.151912 
L 235.086312 519.936185 
L 235.763126 519.07078 
L 236.439941 518.746253 
L 237.116756 518.800341 
L 237.793571 520.206624 
L 238.470386 521.315424 
L 239.147201 521.072029 
L 239.824015 520.206624 
L 240.50083 520.828634 
L 241.177645 520.368887 
L 241.85446 521.477687 
L 242.531275 522.26196 
L 243.20809 524.290253 
L 243.884905 524.344341 
L 244.561719 525.58836 
L 245.238534 525.507229 
L 245.915349 525.615404 
L 246.592164 526.237414 
L 247.268979 525.750624 
L 248.622608 524.425473 
L 249.299423 523.50598 
L 249.976238 523.343716 
L 250.653053 524.046858 
L 251.329868 524.533648 
L 252.006683 526.102195 
L 252.683498 526.480809 
L 253.360312 527.075775 
L 254.037127 528.373882 
L 254.713942 527.238038 
L 255.390757 529.320419 
L 256.067572 529.942429 
L 256.744387 531.619151 
L 257.421201 531.240536 
L 258.098016 531.781414 
L 258.774831 531.75437 
L 259.451646 530.916009 
L 260.128461 531.862546 
L 261.482091 532.890214 
L 262.158905 532.782038 
L 262.83572 532.809082 
L 263.512535 533.079521 
L 264.18935 533.539268 
L 264.866165 533.701531 
L 265.54298 533.728575 
L 266.219794 533.079521 
L 266.896609 534.053102 
L 267.573424 533.97197 
L 268.250239 533.701531 
L 268.927054 534.377629 
L 269.603869 534.59398 
L 270.280684 534.59398 
L 270.957498 536.622273 
L 271.634313 536.378877 
L 272.311128 536.703404 
L 272.987943 537.379502 
L 273.664758 537.78516 
L 274.341573 538.028555 
L 275.018387 538.866916 
L 275.695202 538.596477 
L 276.372017 538.54239 
L 277.048832 538.650565 
L 277.725647 539.543014 
L 278.402462 539.894585 
L 279.079277 541.625395 
L 279.756091 542.97759 
L 280.432906 542.734195 
L 281.786536 543.356204 
L 282.463351 543.32916 
L 283.140166 542.734195 
L 283.81698 543.626643 
L 284.493795 543.410292 
L 285.847425 543.734819 
L 286.52424 544.194565 
L 287.201055 545.168146 
L 287.87787 545.736068 
L 288.554684 544.924751 
L 289.908314 544.546136 
L 290.585129 544.789531 
L 291.261944 545.249277 
L 291.938759 545.411541 
L 292.615573 545.05997 
L 293.292388 545.330409 
L 293.969203 544.546136 
L 294.646018 545.141102 
L 295.999648 544.708399 
L 296.676463 545.492673 
L 298.706907 546.141726 
L 299.383722 546.925999 
L 300.060537 546.141726 
L 300.737352 545.114058 
L 301.414166 546.16877 
L 302.090981 546.844868 
L 303.444611 548.602721 
L 304.121426 548.927248 
L 304.798241 547.926624 
L 305.475056 547.656185 
L 306.828685 549.468126 
L 307.5055 549.468126 
L 308.182315 550.360575 
L 308.85913 551.063716 
L 309.535945 551.929121 
L 310.212759 550.658058 
L 310.889574 551.496419 
L 311.566389 551.117804 
L 312.243204 550.306487 
L 312.920019 550.144224 
L 313.596834 551.171892 
L 314.273649 550.306487 
L 314.950463 550.847365 
L 316.304093 551.009629 
L 316.980908 551.577551 
L 317.657723 551.577551 
L 318.334538 551.902077 
L 319.688167 551.739814 
L 320.364982 551.875034 
L 321.041797 552.848614 
L 321.718612 552.713395 
L 322.395427 552.172516 
L 324.425871 551.604595 
L 325.779501 552.415912 
L 326.456316 552.307736 
L 327.809945 552.902702 
L 328.48676 552.524087 
L 329.163575 552.794526 
L 329.84039 552.740438 
L 330.517205 553.497668 
L 331.870835 553.44358 
L 332.547649 553.551755 
L 333.224464 553.362448 
L 333.901279 553.984458 
L 334.578094 553.903326 
L 335.254909 553.659931 
L 336.608538 554.741687 
L 337.285353 554.606468 
L 337.962168 555.309609 
L 338.638983 555.363697 
L 339.315798 555.904575 
L 339.992613 555.228477 
L 340.669428 555.17439 
L 341.346242 554.985082 
L 342.699872 555.363697 
L 343.376687 555.309609 
L 344.053502 556.310234 
L 344.730317 556.093882 
L 345.407131 555.309609 
L 346.083946 555.471873 
L 348.114391 555.52596 
L 348.791206 554.498292 
L 349.468021 553.903326 
L 350.144835 553.524712 
L 350.82165 554.471248 
L 352.17528 554.795775 
L 352.852095 554.173765 
L 353.52891 554.55238 
L 354.205724 554.06559 
L 354.882539 555.17439 
L 356.912984 554.768731 
L 357.589799 555.03917 
L 358.266614 555.931619 
L 358.943428 556.364321 
L 359.620243 556.229102 
L 360.297058 556.797024 
L 360.973873 556.824068 
L 361.650688 557.824692 
L 362.327503 558.176263 
L 363.004317 557.932868 
L 363.681132 558.960536 
L 364.357947 559.312107 
L 365.034762 560.285687 
L 365.711577 560.042292 
L 366.388392 560.474995 
L 367.065207 561.097004 
L 367.742021 560.880653 
L 368.418836 561.421531 
L 369.772466 561.421531 
L 370.449281 561.232224 
L 372.479725 560.961785 
L 373.15654 561.178136 
L 373.833355 561.719014 
L 374.51017 561.637882 
L 375.186985 562.449199 
L 376.540614 562.31398 
L 377.894244 562.584419 
L 379.247874 562.476243 
L 380.601503 562.530331 
L 381.278318 562.611463 
L 382.631948 561.962409 
L 383.308763 561.962409 
L 383.985578 562.17876 
L 384.662393 562.963034 
L 385.339207 562.93599 
L 386.016022 563.693219 
L 386.692837 563.314604 
L 387.369652 563.071209 
L 388.046467 563.503912 
L 388.723282 563.747307 
L 389.400096 564.152965 
L 390.076911 563.341648 
L 391.430541 563.774351 
L 392.107356 564.04479 
L 392.784171 563.990702 
L 394.1378 564.315229 
L 394.814615 564.612712 
L 395.49143 565.234721 
L 396.84506 565.315853 
L 397.521875 564.883151 
L 398.198689 564.774975 
L 399.552319 564.234097 
L 400.229134 564.558624 
L 400.905949 565.234721 
L 402.259579 565.451073 
L 404.290023 565.775599 
L 406.320468 565.613336 
L 406.997282 566.046038 
L 407.674097 566.073082 
L 409.027727 566.559873 
L 409.704542 566.100126 
L 411.058172 566.073082 
L 411.734986 566.316477 
L 412.411801 566.316477 
L 413.088616 566.586916 
L 413.765431 566.397609 
L 414.442246 566.505785 
L 415.119061 566.803268 
L 415.795875 566.289434 
L 416.47269 566.61396 
L 417.82632 566.830312 
L 418.503135 565.991951 
L 419.17995 566.451697 
L 420.533579 567.046663 
L 421.210394 566.74918 
L 424.594468 567.100751 
L 425.271283 567.533453 
L 425.948098 567.749804 
L 427.301728 568.398858 
L 427.978543 568.561121 
L 428.655358 568.452946 
L 430.008987 568.47999 
L 430.685802 568.398858 
L 432.039432 568.723385 
L 432.716247 568.561121 
L 433.393061 568.561121 
L 434.069876 568.804516 
L 434.746691 568.885648 
L 435.423506 568.452946 
L 436.100321 568.507034 
L 436.777136 568.696341 
L 438.80758 568.885648 
L 439.484395 568.507034 
L 440.16121 568.777473 
L 441.51484 568.642253 
L 442.191654 568.993824 
L 442.868469 568.939736 
L 444.222099 569.210175 
L 444.898914 569.020868 
L 446.252544 569.318351 
L 446.929358 569.372438 
L 447.606173 569.020868 
L 448.959803 569.264263 
L 449.636618 569.480614 
L 450.313433 569.507658 
L 450.990247 568.96678 
L 451.667062 568.777473 
L 452.343877 568.885648 
L 453.020692 568.777473 
L 453.697507 568.939736 
L 454.374322 568.615209 
L 455.051137 568.83156 
L 456.404766 568.642253 
L 457.081581 568.83156 
L 457.758396 568.858604 
L 459.112026 569.237219 
L 460.465655 569.156087 
L 461.14247 569.210175 
L 462.4961 569.967404 
L 463.172915 570.102624 
L 463.84973 569.967404 
L 465.203359 570.021492 
L 468.587433 570.859853 
L 471.294693 571.103248 
L 471.971508 570.940985 
L 472.648323 571.103248 
L 473.325137 571.427775 
L 474.001952 571.103248 
L 474.678767 571.292555 
L 477.386026 571.211424 
L 478.062841 571.103248 
L 478.739656 571.211424 
L 480.770101 570.940985 
L 482.800545 570.968029 
L 484.154175 571.238468 
L 484.83099 571.211424 
L 486.184619 571.508907 
L 487.538249 570.968029 
L 488.215064 571.157336 
L 488.891879 570.751677 
L 489.568694 570.724634 
L 490.245509 570.886897 
L 490.922323 570.859853 
L 492.952768 571.238468 
L 493.629583 570.886897 
L 494.306398 571.130292 
L 494.983212 570.913941 
L 497.013657 570.995073 
L 497.690472 570.69759 
L 498.367287 570.913941 
L 499.044102 570.751677 
L 503.104991 571.18438 
L 503.781805 570.968029 
L 504.45862 571.157336 
L 505.135435 571.103248 
L 505.81225 571.265512 
L 506.489065 571.562995 
L 507.16588 571.400731 
L 507.842695 571.779346 
L 511.903584 571.887521 
L 512.580398 571.995697 
L 513.257213 571.644126 
L 513.934028 571.914565 
L 515.287658 571.968653 
L 516.641288 572.401355 
L 517.994917 572.644751 
L 520.025362 572.698838 
L 520.702177 572.347268 
L 521.378991 572.266136 
L 522.732621 572.834058 
L 523.409436 572.969277 
L 524.086251 572.834058 
L 524.763066 573.023365 
L 526.116695 572.752926 
L 526.79351 572.617707 
L 527.470325 572.698838 
L 528.14714 572.644751 
L 528.823955 572.455443 
L 529.50077 572.671795 
L 530.177584 572.536575 
L 530.854399 572.725882 
L 531.531214 572.617707 
L 532.208029 572.644751 
L 532.884844 572.455443 
L 533.561659 572.671795 
L 537.622548 573.104497 
L 538.976177 573.158585 
L 539.652992 573.456068 
L 541.683437 573.239716 
L 543.713881 573.564243 
L 544.390696 573.753551 
L 545.067511 573.780595 
L 546.421141 573.591287 
L 548.451585 573.591287 
L 549.1284 573.537199 
L 550.48203 573.645375 
L 554.542919 573.753551 
L 557.250178 573.753551 
L 557.926993 573.753551 
L 558.603808 573.537199 
L 560.634253 573.591287 
L 561.311067 573.537199 
L 562.664697 573.861726 
L 564.018327 573.618331 
L 566.048771 574.02399 
L 567.402401 574.105121 
L 568.756031 574.213297 
L 570.10966 574.159209 
L 574.170549 574.564868 
L 576.200994 574.321473 
L 578.908253 574.673043 
L 579.585068 574.591912 
L 581.615513 574.835307 
L 582.292328 574.99757 
L 584.322772 574.673043 
L 585.676402 574.781219 
L 586.353217 574.673043 
L 587.706846 574.727131 
L 589.737291 574.700087 
L 591.767735 575.024614 
L 592.44455 574.862351 
L 599.212699 575.213921 
L 600.566328 575.376185 
L 601.919958 575.295053 
L 602.596773 575.295053 
L 603.273588 575.430273 
L 603.950403 575.430273 
L 604.627218 575.295053 
L 606.657662 575.511404 
L 607.334477 575.430273 
L 608.011292 575.48436 
L 608.688107 575.403229 
L 609.364922 575.538448 
L 610.041736 575.511404 
L 611.395366 575.646624 
L 614.102625 575.646624 
L 614.77944 575.592536 
L 616.809885 575.727755 
L 632.376626 575.700712 
L 633.053441 575.565492 
L 634.407071 575.754799 
L 635.760701 575.700712 
L 637.791145 575.538448 
L 645.236108 575.565492 
L 645.912923 575.700712 
L 647.266553 575.61958 
L 649.973812 575.727755 
L 662.15648 575.673668 
L 663.510109 575.538448 
L 665.540554 575.565492 
L 671.631887 575.754799 
L 672.308702 575.700712 
L 672.985517 575.835931 
L 673.662332 575.727755 
L 674.339147 575.808887 
L 675.692776 575.727755 
L 678.400036 575.727755 
L 680.43048 575.646624 
L 681.78411 575.673668 
L 685.168184 575.781843 
L 687.198629 575.835931 
L 693.966777 575.808887 
L 694.643592 575.646624 
L 695.997222 575.646624 
L 697.350852 575.754799 
L 713.594408 575.862975 
L 716.978482 575.890019 
L 730.514779 575.998195 
L 732.545224 576.133414 
L 733.898853 576.052282 
L 734.575668 576.025238 
L 735.929298 576.187502 
L 737.959742 576.187502 
L 739.313372 576.24159 
L 740.667002 576.268634 
L 742.697446 576.10637 
L 759.617817 576.133414 
L 760.971447 576.268634 
L 763.001892 576.187502 
L 764.355521 576.322721 
L 766.385966 576.268634 
L 773.154114 576.214546 
L 774.507744 576.079326 
L 775.861374 576.10637 
L 793.45856 576.052282 
L 794.812189 575.917063 
L 796.165819 576.079326 
L 796.842634 575.944107 
L 803.610782 576.052282 
L 807.671671 576.160458 
L 811.732561 575.890019 
L 813.763005 575.890019 
L 814.43982 575.808887 
L 815.79345 575.890019 
L 816.470264 576.10637 
L 819.854339 576.160458 
L 823.238413 576.10637 
L 824.592043 576.133414 
L 825.945672 576.10637 
L 827.299302 576.322721 
L 829.329747 576.268634 
L 833.390636 576.322721 
L 834.06745 576.268634 
L 835.42108 576.322721 
L 837.451525 576.322721 
L 840.158784 576.295677 
L 841.512414 576.322721 
L 854.371896 576.430897 
L 857.75597 576.457941 
L 925.437455 576.566116 
L 929.498344 576.620204 
L 930.851973 576.620204 
L 991.76531 576.72838 
L 995.149384 576.755424 
L 1112.238352 576.755424 
L 1112.238352 576.755424 
" style="fill:none;stroke:#1f77b4;stroke-linecap:square;stroke-width:1.5;"/>
   </g>
   <g id="patch_3">
    <path d="M 46.965625 590.277375 
L 46.965625 35.877375 
" style="fill:none;stroke:#000000;stroke-linecap:square;stroke-linejoin:miter;stroke-width:0.8;"/>
   </g>
   <g id="patch_4">
    <path d="M 1162.965625 590.277375 
L 1162.965625 35.877375 
" style="fill:none;stroke:#000000;stroke-linecap:square;stroke-linejoin:miter;stroke-width:0.8;"/>
   </g>
   <g id="patch_5">
    <path d="M 46.965625 590.277375 
L 1162.965625 590.277375 
" style="fill:none;stroke:#000000;stroke-linecap:square;stroke-linejoin:miter;stroke-width:0.8;"/>
   </g>
   <g id="patch_6">
    <path d="M 46.965625 35.877375 
L 1162.965625 35.877375 
" style="fill:none;stroke:#000000;stroke-linecap:square;stroke-linejoin:miter;stroke-width:0.8;"/>
   </g>
   <g id="text_20">
    <!-- AES_HD -->
    <defs>
     <path d="M 34.1875 63.1875 
L 20.796875 26.90625 
L 47.609375 26.90625 
z
M 28.609375 72.90625 
L 39.796875 72.90625 
L 67.578125 0 
L 57.328125 0 
L 50.6875 18.703125 
L 17.828125 18.703125 
L 11.1875 0 
L 0.78125 0 
z
" id="DejaVuSans-65"/>
     <path d="M 9.8125 72.90625 
L 55.90625 72.90625 
L 55.90625 64.59375 
L 19.671875 64.59375 
L 19.671875 43.015625 
L 54.390625 43.015625 
L 54.390625 34.71875 
L 19.671875 34.71875 
L 19.671875 8.296875 
L 56.78125 8.296875 
L 56.78125 0 
L 9.8125 0 
z
" id="DejaVuSans-69"/>
     <path d="M 53.515625 70.515625 
L 53.515625 60.890625 
Q 47.90625 63.578125 42.921875 64.890625 
Q 37.9375 66.21875 33.296875 66.21875 
Q 25.25 66.21875 20.875 63.09375 
Q 16.5 59.96875 16.5 54.203125 
Q 16.5 49.359375 19.40625 46.890625 
Q 22.3125 44.4375 30.421875 42.921875 
L 36.375 41.703125 
Q 47.40625 39.59375 52.65625 34.296875 
Q 57.90625 29 57.90625 20.125 
Q 57.90625 9.515625 50.796875 4.046875 
Q 43.703125 -1.421875 29.984375 -1.421875 
Q 24.8125 -1.421875 18.96875 -0.25 
Q 13.140625 0.921875 6.890625 3.21875 
L 6.890625 13.375 
Q 12.890625 10.015625 18.65625 8.296875 
Q 24.421875 6.59375 29.984375 6.59375 
Q 38.421875 6.59375 43.015625 9.90625 
Q 47.609375 13.234375 47.609375 19.390625 
Q 47.609375 24.75 44.3125 27.78125 
Q 41.015625 30.8125 33.5 32.328125 
L 27.484375 33.5 
Q 16.453125 35.6875 11.515625 40.375 
Q 6.59375 45.0625 6.59375 53.421875 
Q 6.59375 63.09375 13.40625 68.65625 
Q 20.21875 74.21875 32.171875 74.21875 
Q 37.3125 74.21875 42.625 73.28125 
Q 47.953125 72.359375 53.515625 70.515625 
z
" id="DejaVuSans-83"/>
     <path d="M 50.984375 -16.609375 
L 50.984375 -23.578125 
L -0.984375 -23.578125 
L -0.984375 -16.609375 
z
" id="DejaVuSans-95"/>
     <path d="M 9.8125 72.90625 
L 19.671875 72.90625 
L 19.671875 43.015625 
L 55.515625 43.015625 
L 55.515625 72.90625 
L 65.375 72.90625 
L 65.375 0 
L 55.515625 0 
L 55.515625 34.71875 
L 19.671875 34.71875 
L 19.671875 0 
L 9.8125 0 
z
" id="DejaVuSans-72"/>
     <path d="M 19.671875 64.796875 
L 19.671875 8.109375 
L 31.59375 8.109375 
Q 46.6875 8.109375 53.6875 14.9375 
Q 60.6875 21.78125 60.6875 36.53125 
Q 60.6875 51.171875 53.6875 57.984375 
Q 46.6875 64.796875 31.59375 64.796875 
z
M 9.8125 72.90625 
L 30.078125 72.90625 
Q 51.265625 72.90625 61.171875 64.09375 
Q 71.09375 55.28125 71.09375 36.53125 
Q 71.09375 17.671875 61.125 8.828125 
Q 51.171875 0 30.078125 0 
L 9.8125 0 
z
" id="DejaVuSans-68"/>
    </defs>
    <g transform="translate(581.12875 16.10625)scale(0.12 -0.12)">
     <use xlink:href="#DejaVuSans-65"/>
     <use x="68.408203" xlink:href="#DejaVuSans-69"/>
     <use x="131.591797" xlink:href="#DejaVuSans-83"/>
     <use x="195.068359" xlink:href="#DejaVuSans-95"/>
     <use x="245.068359" xlink:href="#DejaVuSans-72"/>
     <use x="320.263672" xlink:href="#DejaVuSans-68"/>
    </g>
    <!-- _1500trs_100att -->
    <g transform="translate(555.9175 29.877375)scale(0.12 -0.12)">
     <use xlink:href="#DejaVuSans-95"/>
     <use x="50" xlink:href="#DejaVuSans-49"/>
     <use x="113.623047" xlink:href="#DejaVuSans-53"/>
     <use x="177.246094" xlink:href="#DejaVuSans-48"/>
     <use x="240.869141" xlink:href="#DejaVuSans-48"/>
     <use x="304.492188" xlink:href="#DejaVuSans-116"/>
     <use x="343.701172" xlink:href="#DejaVuSans-114"/>
     <use x="384.814453" xlink:href="#DejaVuSans-115"/>
     <use x="436.914062" xlink:href="#DejaVuSans-95"/>
     <use x="486.914062" xlink:href="#DejaVuSans-49"/>
     <use x="550.537109" xlink:href="#DejaVuSans-48"/>
     <use x="614.160156" xlink:href="#DejaVuSans-48"/>
     <use x="677.783203" xlink:href="#DejaVuSans-97"/>
     <use x="739.0625" xlink:href="#DejaVuSans-116"/>
     <use x="778.271484" xlink:href="#DejaVuSans-116"/>
    </g>
   </g>
   <g id="legend_1">
    <g id="patch_7">
     <path d="M 1174.965625 63.5555 
L 1225.360938 63.5555 
Q 1227.360938 63.5555 1227.360938 61.5555 
L 1227.360938 47.877375 
Q 1227.360938 45.877375 1225.360938 45.877375 
L 1174.965625 45.877375 
Q 1172.965625 45.877375 1172.965625 47.877375 
L 1172.965625 61.5555 
Q 1172.965625 63.5555 1174.965625 63.5555 
z
" style="fill:#ffffff;opacity:0.8;stroke:#cccccc;stroke-linejoin:miter;"/>
    </g>
    <g id="line2d_36">
     <path d="M 1176.965625 53.975812 
L 1196.965625 53.975812 
" style="fill:none;stroke:#1f77b4;stroke-linecap:square;stroke-width:1.5;"/>
    </g>
    <g id="line2d_37"/>
    <g id="text_21">
     <!-- avg -->
     <defs>
      <path d="M 2.984375 54.6875 
L 12.5 54.6875 
L 29.59375 8.796875 
L 46.6875 54.6875 
L 56.203125 54.6875 
L 35.6875 0 
L 23.484375 0 
z
" id="DejaVuSans-118"/>
      <path d="M 45.40625 27.984375 
Q 45.40625 37.75 41.375 43.109375 
Q 37.359375 48.484375 30.078125 48.484375 
Q 22.859375 48.484375 18.828125 43.109375 
Q 14.796875 37.75 14.796875 27.984375 
Q 14.796875 18.265625 18.828125 12.890625 
Q 22.859375 7.515625 30.078125 7.515625 
Q 37.359375 7.515625 41.375 12.890625 
Q 45.40625 18.265625 45.40625 27.984375 
z
M 54.390625 6.78125 
Q 54.390625 -7.171875 48.1875 -13.984375 
Q 42 -20.796875 29.203125 -20.796875 
Q 24.46875 -20.796875 20.265625 -20.09375 
Q 16.0625 -19.390625 12.109375 -17.921875 
L 12.109375 -9.1875 
Q 16.0625 -11.328125 19.921875 -12.34375 
Q 23.78125 -13.375 27.78125 -13.375 
Q 36.625 -13.375 41.015625 -8.765625 
Q 45.40625 -4.15625 45.40625 5.171875 
L 45.40625 9.625 
Q 42.625 4.78125 38.28125 2.390625 
Q 33.9375 0 27.875 0 
Q 17.828125 0 11.671875 7.65625 
Q 5.515625 15.328125 5.515625 27.984375 
Q 5.515625 40.671875 11.671875 48.328125 
Q 17.828125 56 27.875 56 
Q 33.9375 56 38.28125 53.609375 
Q 42.625 51.21875 45.40625 46.390625 
L 45.40625 54.6875 
L 54.390625 54.6875 
z
" id="DejaVuSans-103"/>
     </defs>
     <g transform="translate(1204.965625 57.475812)scale(0.1 -0.1)">
      <use xlink:href="#DejaVuSans-97"/>
      <use x="61.279297" xlink:href="#DejaVuSans-118"/>
      <use x="120.458984" xlink:href="#DejaVuSans-103"/>
     </g>
    </g>
   </g>
  </g>
 </g>
 <defs>
  <clipPath id="pf307394118">
   <rect height="554.4" width="1116" x="46.965625" y="35.877375"/>
  </clipPath>
 </defs>
</svg>
